<mxfile host="65bd71144e" modified="2021-03-06T21:25:57.096Z" agent="5.0 (Windows NT 10.0; Win64; x64) AppleWebKit/537.36 (KHTML, like Gecko) Code/1.54.1 Chrome/87.0.4280.141 Electron/11.3.0 Safari/537.36" etag="ZsbzJcHexA6oDTBW7uU6" version="14.2.4" type="embed">
    <diagram id="oTQ9V0kSjyYxd3hT1cOE" name="Page-1">
        <mxGraphModel dx="1727" dy="857" grid="1" gridSize="10" guides="1" tooltips="1" connect="1" arrows="1" fold="1" page="1" pageScale="1" pageWidth="1100" pageHeight="850" math="0" shadow="0">
            <root>
                <mxCell id="0"/>
                <mxCell id="1" parent="0"/>
                <mxCell id="FypQIyogfhRc7Sxnkb17-2" value="" style="rounded=0;whiteSpace=wrap;html=1;" parent="1" vertex="1">
                    <mxGeometry x="140" y="230" width="870" height="530" as="geometry"/>
                </mxCell>
                <mxCell id="FypQIyogfhRc7Sxnkb17-21" value="" style="rounded=0;whiteSpace=wrap;html=1;strokeColor=#d6b656;fontSize=20;align=right;fillColor=#fff2cc;" parent="1" vertex="1">
                    <mxGeometry x="150" y="320" width="850" height="430" as="geometry"/>
                </mxCell>
                <mxCell id="FypQIyogfhRc7Sxnkb17-19" value="" style="rounded=0;whiteSpace=wrap;html=1;strokeColor=#6c8ebf;fontSize=20;align=right;fillColor=#dae8fc;" parent="1" vertex="1">
                    <mxGeometry x="150" y="240" width="850" height="80" as="geometry"/>
                </mxCell>
                <mxCell id="FypQIyogfhRc7Sxnkb17-3" value="Aho-Corasick Automata Visualizer" style="text;html=1;fillColor=none;align=center;verticalAlign=middle;whiteSpace=wrap;rounded=0;fontSize=20;labelBorderColor=none;strokeColor=#000000;fontColor=#000000;" parent="1" vertex="1">
                    <mxGeometry x="210" y="255" width="230" height="50" as="geometry"/>
                </mxCell>
                <mxCell id="FypQIyogfhRc7Sxnkb17-5" value="i" style="ellipse;whiteSpace=wrap;html=1;strokeColor=#000000;fontSize=20;" parent="1" vertex="1">
                    <mxGeometry x="155" y="255" width="50" height="50" as="geometry"/>
                </mxCell>
                <mxCell id="FypQIyogfhRc7Sxnkb17-14" value="" style="group;fontSize=12;" parent="1" vertex="1" connectable="0">
                    <mxGeometry x="660" y="265" width="270" height="30" as="geometry"/>
                </mxCell>
                <mxCell id="FypQIyogfhRc7Sxnkb17-15" value="&lt;font style=&quot;font-size: 12px;&quot;&gt;Substring&lt;/font&gt;" style="rounded=0;whiteSpace=wrap;html=1;strokeColor=#000000;fontSize=12;align=center;" parent="FypQIyogfhRc7Sxnkb17-14" vertex="1">
                    <mxGeometry x="40" width="60" height="30" as="geometry"/>
                </mxCell>
                <mxCell id="FypQIyogfhRc7Sxnkb17-16" value="" style="endArrow=none;html=1;fontSize=20;strokeColor=#000000;" parent="FypQIyogfhRc7Sxnkb17-14" edge="1">
                    <mxGeometry width="50" height="50" relative="1" as="geometry">
                        <mxPoint x="130" y="30" as="sourcePoint"/>
                        <mxPoint x="270" y="30" as="targetPoint"/>
                        <Array as="points">
                            <mxPoint x="180" y="30"/>
                        </Array>
                    </mxGeometry>
                </mxCell>
                <mxCell id="FypQIyogfhRc7Sxnkb17-17" value="Visualization" style="rounded=0;whiteSpace=wrap;html=1;strokeColor=#9673a6;fontSize=20;fillColor=#e1d5e7;fontColor=#000000;" parent="1" vertex="1">
                    <mxGeometry x="310" y="385" width="520" height="300" as="geometry"/>
                </mxCell>
                <mxCell id="FypQIyogfhRc7Sxnkb17-18" value="Go" style="rounded=0;whiteSpace=wrap;html=1;strokeColor=#000000;fontSize=20;" parent="1" vertex="1">
                    <mxGeometry x="940" y="260" width="45.71" height="40" as="geometry"/>
                </mxCell>
                <mxCell id="FypQIyogfhRc7Sxnkb17-22" value="Header" style="rounded=0;whiteSpace=wrap;html=1;strokeColor=#6c8ebf;fontSize=20;align=center;fillColor=#dae8fc;fontColor=#000000;" parent="1" vertex="1">
                    <mxGeometry x="160" y="80" width="130" height="20" as="geometry"/>
                </mxCell>
                <mxCell id="FypQIyogfhRc7Sxnkb17-23" value="InputCont" style="rounded=0;whiteSpace=wrap;html=1;strokeColor=#b85450;fontSize=20;align=center;fillColor=#f8cecc;fontColor=#000000;" parent="1" vertex="1">
                    <mxGeometry x="250" y="110" width="130" height="20" as="geometry"/>
                </mxCell>
                <mxCell id="FypQIyogfhRc7Sxnkb17-24" value="Body" style="rounded=0;whiteSpace=wrap;html=1;strokeColor=#d6b656;fontSize=20;align=center;fillColor=#fff2cc;fontColor=#000000;" parent="1" vertex="1">
                    <mxGeometry x="160" y="134" width="130" height="20" as="geometry"/>
                </mxCell>
                <mxCell id="FypQIyogfhRc7Sxnkb17-26" value="Visualization" style="rounded=0;whiteSpace=wrap;html=1;strokeColor=#9673a6;fontSize=20;align=center;fillColor=#e1d5e7;fontColor=#000000;" parent="1" vertex="1">
                    <mxGeometry x="250" y="160" width="130" height="20" as="geometry"/>
                </mxCell>
                <mxCell id="FypQIyogfhRc7Sxnkb17-9" value="&lt;font style=&quot;font-size: 12px;&quot;&gt;Original String&lt;/font&gt;" style="rounded=0;whiteSpace=wrap;html=1;strokeColor=#000000;fontSize=12;align=center;" parent="1" vertex="1">
                    <mxGeometry x="450" y="265" width="90" height="30" as="geometry"/>
                </mxCell>
                <mxCell id="FypQIyogfhRc7Sxnkb17-12" value="" style="endArrow=none;html=1;fontSize=20;strokeColor=#000000;" parent="1" edge="1">
                    <mxGeometry width="50" height="50" relative="1" as="geometry">
                        <mxPoint x="550" y="294" as="sourcePoint"/>
                        <mxPoint x="690" y="294" as="targetPoint"/>
                        <Array as="points">
                            <mxPoint x="560" y="294"/>
                        </Array>
                    </mxGeometry>
                </mxCell>
            </root>
        </mxGraphModel>
    </diagram>
</mxfile>